# xmcd
#
# Track frame offsets: 
#        150
#        21328
#        44771
#        66472
#        71808
#        98602
#        121589
#        154333
#        172082
#        174180
#        198419
#        221895
#        225996
#        248348
#        266822
#        288891
#        308723
#
# Disc length: 4127 seconds
#
# Revision: 0
# Processed by: cddbd v1.5.2PL0 Copyright (c) Steve Scherf et al.
# Submitted via: ExactAudioCopy v1.1
#
DISCID=f3101d11
DTITLE=Mitch Woods - Jammin' On The High Cs
DYEAR=2015
DGENRE=Blues
TTITLE0=Big Mamou
TTITLE1=Tain't Nobody's Buzness
TTITLE2=Rip It Up
TTITLE3=Story Of Club 88
TTITLE4=Bright Lights, Big City
TTITLE5=Jambalalaya
TTITLE6=Eyesight To The Blind
TTITLE7=I Want You To Be My Baby
TTITLE8=7 Mile Limit
TTITLE9=Rock Me Baby
TTITLE10=Wine Spo De-O-Dee
TTITLE11=Friends of Bill W
TTITLE12=Broke
TTITLE13=Boom Boom
TTITLE14=Wee Wee Hours
TTITLE15=Whole Lotta Shaken' Goin' On
TTITLE16=Toast
EXTD=
EXTT0=
EXTT1=
EXTT2=
EXTT3=
EXTT4=
EXTT5=
EXTT6=
EXTT7=
EXTT8=
EXTT9=
EXTT10=
EXTT11=
EXTT12=
EXTT13=
EXTT14=
EXTT15=
EXTT16=
PLAYORDER=
